<svg xmlns="http://www.w3.org/2000/svg" viewBox="0 0 31 32"><path fill="#ff6b09" d="M6.947 14.566c0 .227-.344.227-.344 0a8.726 8.726 0 0 1 17.45 0c0 .227-.342.227-.342 0 0-3.256-5.351-3.258-5.351 0 0 .227-.352.227-.352 0 0-3.248-5.36-3.248-5.36 0 0 .227-.352.227-.352 0 0-3.242-5.349-3.265-5.349 0zm5.38-1.264c.093-1.874.387-3.555.816-4.838.342-1.02.774-1.794 1.265-2.229a8.387 8.387 0 0 0-7.322 6.808c1.267-1.827 4.192-1.681 5.242.26zm5.654-.085c-.095-1.802-.381-3.415-.793-4.645-1.063-3.182-2.657-3.182-3.72 0-.412 1.23-.696 2.842-.793 4.645 1.143-1.942 4.163-1.942 5.306 0zm5.59-.175a8.384 8.384 0 0 0-7.322-6.808c.492.435.923 1.209 1.265 2.229.428 1.283.723 2.964.816 4.838 1.057-1.951 3.99-2.066 5.242-.26zM14.183 18.559v-1.772c-.319.212-.571.54-.571.939 0 .389.255.647.571.832zm.344.55c-.612-.28-1.256-.608-1.256-1.382 0-.799.608-1.199 1.256-1.498v2.88zM16.474 21.232v1.792c.323-.214.577-.544.577-.943 0-.393-.259-.659-.577-.849zm-.342-.552c.614.284 1.263.622 1.263 1.401 0 .801-.612 1.201-1.263 1.497V20.68z"/><path fill="#ff6b09" d="M16.474 14.77c1.409.325 2.857 1.38 2.857 2.956 0 1.349-2.28 1.3-2.28 0 0-.402-.253-.731-.577-.943v2.521c1.304.426 2.861 1.191 2.861 2.777 0 1.578-1.448 2.63-2.861 2.954-.006 1.502-2.286 1.5-2.29-.002-.803-.185-1.502-.56-2.006-1.057-.529-.523-.842-1.18-.842-1.895 0-1.329 2.278-1.329 2.278 0 0 .398.251.725.571.937v-2.519c-1.294-.418-2.859-1.205-2.859-2.777 0-1.578 1.448-2.63 2.859-2.954.006-1.502 2.286-1.5 2.29.002zm-1.947.004v.274c-1.341.266-2.861 1.125-2.861 2.674 0 1.489 1.668 2.157 2.861 2.525v3.329c-.645-.295-1.256-.692-1.256-1.495 0-.878-1.594-.878-1.594 0 0 .62.276 1.193.742 1.65.591.585 1.308.863 2.109 1.022v.276c0 1.057 1.605 1.057 1.605 0v-.274c1.345-.268 2.859-1.127 2.859-2.674 0-1.504-1.664-2.15-2.859-2.527v-3.327c.647.295 1.263.692 1.263 1.5 0 .855 1.592.89 1.592 0 0-1.547-1.512-2.408-2.855-2.676v-.276c0-1.057-1.605-1.057-1.605 0z"/><path fill="none" stroke="#ff6b09" stroke-width="1.016" d="M30.387 4.945V.762H.508v30.476h29.879v-4.183"/></svg>