<svg xmlns="http://www.w3.org/2000/svg" viewBox="0 0 31 32"><path fill="#ff6b09" d="M24.717 5.25H14.47c-.667 0-1.21.543-1.21 1.21v4.242l-7.613 3.195a.248.248 0 0 0-.031.441l.971.581v6.192a1.118 1.118 0 0 0-.869 1.089v.597c0 .137.111.248.248.248h1.739a.248.248 0 0 0 .248-.248V22.2a1.12 1.12 0 0 0-.87-1.089v-5.896l.768.459c-.024.177-.003-.309-.011 2.883 0 1.049 2.687 1.611 5.421 1.643v4.832a1.207 1.207 0 0 0 1.209 1.208h10.247a1.21 1.21 0 0 0 1.209-1.209V6.458c0-.658-.544-1.21-1.208-1.21zM7.456 22.201v.349H6.213v-.349a.622.622 0 1 1 1.243 0zm17.261 3.544H14.47a.709.709 0 0 1-.714-.711v-1.675h11.672v1.676a.718.718 0 0 1-.711.711zm.711-2.883H13.756v-2.659c1.335-.015 5.424-.309 5.424-1.645-.001-2.005.004-2.818-.006-2.887l2.226-1.334a.247.247 0 1 0-.031-.441l-7.613-3.195V8.63h11.672v14.232zm-11.92-5.95c-1.375 0-4.023.178-5.173.929.007-2.297-.08-2.148.203-2.343.715-.526 2.758-.894 4.97-.894.965 0 5.176.265 5.176 1.157v2.08c-1.161-.758-3.795-.929-5.176-.929zm.248-10.452c0-.393.32-.713.713-.713h10.247c.393 0 .712.324.712.713v1.675H13.756V6.46zm-.248 4.675l7.217 3.029-1.788 1.07c-.951-.943-4.096-1.126-5.429-1.126-1.335 0-4.48.183-5.429 1.126l-1.789-1.07 7.218-3.029zm-5.173 7.423c0-.401 1.777-1.15 5.173-1.15 3.399 0 5.176.749 5.176 1.15s-1.778 1.15-5.176 1.15c-3.396 0-5.173-.749-5.173-1.15z"/><path fill="#ff6b09" d="M19.593 23.732a.821.821 0 0 0 0 1.64.821.821 0 0 0 0-1.64zm0 1.145a.325.325 0 1 1 .001-.65.325.325 0 0 1-.001.65zM20.538 6.693h-1.891v.496h1.891v-.496z"/><path fill="none" stroke="#ff6b09" stroke-width="1.016" d="M30.387 4.945V.762H.508v30.476h29.879v-4.183"/></svg>