<svg xmlns="http://www.w3.org/2000/svg" fill="none" viewBox="0 0 407 472"><path fill="#3D3D3D" d="M451.016 321.411c-6.047-12.303-14.388-24.418-26.587-38.412-30.757-35.125-40.14-113.452-40.245-114.203-.417-3.757-3.336-6.856-7.194-7.983-3.962-1.127-8.236-.094-11.051 2.723-36.7 37.285-21.27 94.857-12.929 117.866 2.294 6.293 4.796 13.712 6.568 21.226 13.554 60.764-12.616 88.282-18.767 93.823-5.943 1.503-10.01.751-13.763-2.911-12.928-12.867-17.203-55.036-11.156-109.978 1.252-11.176.938-21.225-.834-30.617-12.753-67.529-59.515-110.845-71.419-126.037C210.901 82.955 207.564 9.794 207.46 9.136c-.104-3.475-2.294-6.574-5.734-8.077-3.337-1.502-7.403-1.314-10.531.658-54.633 33.716-49.941 114.954-42.33 160.317 1.772 10.518 5.213 21.225 11.156 34.749 21.165 48.367-4.17 110.822-4.379 111.386-.208.563-.417 1.033-.521 1.596-3.232 15.403-8.654 24.607-14.701 24.607-.626 0-1.251-.094-1.981-.282-7.403-1.409-11.26-8.547-11.365-14.745-.417-80.112-88.935-107.066-89.873-107.348-3.962-1.127-8.341-.093-11.052 2.818-2.815 2.911-3.336 6.95-1.46 10.331 1.043 1.972 4.38 10.613 2.086 41.136a322.187 322.187 0 0 1-16.37 80.581C-10.654 409.224-7.318 468.298-7.11 471.115 9.085 631.063 262.342 659.09 412.647 568.977c16.473-9.861 29.923-21.131 39.828-33.529 55.468-69.498 22.834-163.885-1.459-214.037zM65.77 474.214c.312 5.166-4.067 9.58-9.801 9.862h-.626c-5.525 0-10.113-3.851-10.426-8.828-.938-13.712-.73-28.082.417-43.672.417-5.165 5.422-9.016 11.156-8.735 5.735.375 10.114 4.883 9.697 10.049-1.148 14.84-1.356 28.364-.417 41.324zm5.107-83.21c-.625 4.79-5.108 8.264-10.321 8.264-.417 0-.835 0-1.356-.093-5.63-.658-9.696-5.26-9.07-10.425l5.004-36.252c.73-5.072 5.838-8.735 11.677-8.171 5.735.657 9.8 5.353 9.07 10.519l-5.004 36.158zM374.113 128.726c-5.364-.795-9.042-5.591-8.215-10.723.614-3.823 4.167-23.394 13.809-33.235 3.712-3.794 9.926-3.992 13.902-.427 3.961 3.551 4.162 9.506.446 13.3-4.081 4.168-7.558 16.094-8.72 23.23-.83 5.077-5.779 8.64-11.222 7.855zM15.604 175.594c-1.882-6.997-6.559-18.538-11.048-22.305-4.086-3.428-4.494-9.373-.913-13.277 3.573-3.914 9.781-4.314 13.877-.873 10.597 8.889 16.134 28.034 17.138 31.778 1.344 5.031-1.824 10.148-7.078 11.444-5.369 1.292-10.637-1.82-11.975-6.767z"/></svg>