<svg xmlns="http://www.w3.org/2000/svg" viewBox="0 0 31 32"><path fill="#ff6b09" d="M7.046 26.006h17.006c.084-1.939-.055-5.157-1.247-6.689l-.043-.055-2.606-1.308c.057-.191.084-.366.096-.494a.904.904 0 0 0-.063-.43c-.43-1.029-1.339-1.57-1.84-1.8.152-.307.251-.637.298-.974a.837.837 0 0 0 .586-.604l.304-1.236a.834.834 0 0 0-.283-.848c.858-1.948-.579-3.784-.657-3.881-1.555-1.682-3.52-1.367-3.624-1.349-2.836.594-3.93 2.767-3.312 5.316a.836.836 0 0 0-.192.762l.306 1.237c.074.297.3.521.581.602.087.617.348 1.175.732 1.625v.979c-4.069 2.084-1.491.754-4.752 2.404-.006.031-1.53 1.65-1.304 6.45l.014.293zm16.415-.616h-2.799v-1.176l1.851-4.238c.927 1.539.962 4.478.948 5.413zm-3.82-7.983c-.108 1.241-.788.866-1.208 1.822-.33-.363-.43-.799-.341-1.265.16-.856-.362-1.11-.233-2.01l.02-.021v-.003a6.52 6.52 0 0 0 .144-.174c1.107.483 1.64 1.381 1.619 1.651zm-5.94-.975a3.15 3.15 0 0 0 3.539.047c.071.707.347.849.249 1.369a2.402 2.402 0 0 0-.034.285l-1.906 2.148-2.437-2.747.588-.307v-.796zm-.767-2.629v-1.191-2.093c.297-.549.701-.947 1.204-1.185 1.346.762 2.896 1.898 3.935 3.042-.001 1.457.004 1.461-.006 1.58l-.001.008a2.571 2.571 0 0 1-2.564 2.419 2.577 2.577 0 0 1-2.568-2.581zm-.379 4.03l2.994 3.376 2.01-2.266c.046.132.11.257.184.378l-2.194 2.744-3.272-4.093.278-.14zm6.131-4.526v-.951l.229-.262c.013.482.065-.087-.229 1.213zm-3.599-6.365c.122.008 1.756-.249 3.047 1.146.051.064 1.102 1.418.68 2.9-.145-.659-.397-1.504-.795-1.907l-.435.434c.393.398.651 1.611.75 2.24-1.803-1.887-4.13-3.082-4.162-3.102-.117.073-1.101.26-1.816 1.649l-.034.066v1.021l-.09.001c-.454-2.193.416-3.936 2.855-4.447zm-2.92 5.081l.155.627v.659l-.257-1.041c-.038-.155.077-.214.102-.245zm-.451 6.231l3.833 4.794 2.594-3.244c.282.253.418.288 1.016.596l-.202-.684c-.051-.174.151-.452.274-.58.273-.148.501-.36.671-.621l2.116 1.063-1.969 4.508v1.305h-9v-1.305l-1.97-4.507 2.637-1.324zm-3.132 1.724l1.851 4.237v1.176H7.636c-.014-.935.021-3.872.947-5.412z"/><path fill="none" stroke="#ff6b09" stroke-width="1.016" d="M30.387 4.945V.762H.508v30.476h29.879v-4.183"/></svg>